<svg id="svg" version="1.1" xmlns="http://www.w3.org/2000/svg" xmlns:xlink="http://www.w3.org/1999/xlink" width="400" height="449.4623655913979" viewBox="0, 0, 400,449.4623655913979"><g id="svgg"><path id="path0" d="M191.672 2.124 C 187.451 3.126,184.485 4.787,90.323 58.885 C 13.104 103.249,9.805 105.420,4.607 115.286 L 1.613 120.968 1.613 224.731 L 1.613 328.495 4.607 334.177 C 9.958 344.333,12.578 346.040,99.847 396.237 C 197.326 452.306,194.358 450.922,209.160 447.195 C 215.028 445.717,381.494 350.172,388.058 344.514 C 391.058 341.927,394.001 337.869,396.122 333.393 L 399.462 326.344 399.462 224.731 L 399.462 123.118 396.418 116.531 C 391.487 105.859,389.861 104.787,301.075 53.639 C 204.362 -2.076,206.039 -1.287,191.672 2.124 " stroke="none" fill="rgba(255, 255, 255, .2)" fill-rule="evenodd"></path></g></svg>